# xmcd CD database file
#
# Track frame offsets:
#	150
#	17030
#	33427
#	49447
#	71600
#	86157
#	91462
#	101257
#	117012
#	119225
#	150702
#	166500
#	180672
#	183680
#	197945
#	213710
#	228900
#
# Disc length: 3305 seconds
#
# Revision: 0
# Processed by: cddbd v1.4PL0 Copyright (c) Steve Scherf et al.
# Submitted via: CDex 1.40Beta9
#
DISCID=ee0ce711
DTITLE=CHE and RAY - THE ORIGINAL 1998
DYEAR=1998
DGENRE=Blues
TTITLE0=Wild`n Boogie
TTITLE1=Moderation: "Hoi Zäme"
TTITLE2=THE ORIGINAL: CHE&RAY - MEDLEY
TTITLE3=Bluesin` For You Too
TTITLE4=Cruiser 2000 and 1
TTITLE5=Moderation: "Hong Kong - Times"
TTITLE6=Ray`s Ultimate Boogie-Woogie
TTITLE7=Che´s Boogie Spirit
TTITLE8=Moderation: "Für Elise"
TTITLE9=Elize´s Boogie-Woogie (Für Elise)
TTITLE10=Three Quarters Of Blues
TTITLE11=four Hand Stomp
TTITLE12=Moderation: The Kaiser Twins"
TTITLE13=Call Me Boogie
TTITLE14=NEAT BOOGIE
TTITLE15=Eight (!) Hand Boogie-Woogie*
TTITLE16=Bim Bam Blues
EXTD=YEAR: 1998 ID3G: 0
EXTT0=
EXTT1=
EXTT2=
EXTT3=
EXTT4=
EXTT5=
EXTT6=
EXTT7=
EXTT8=
EXTT9=
EXTT10=
EXTT11=
EXTT12=
EXTT13=
EXTT14=
EXTT15=
EXTT16=
PLAYORDER=
